<?xml version="1.0" encoding="UTF-8" standalone="no"?>
<!DOCTYPE svg PUBLIC "-//W3C//DTD SVG 1.1//EN" "http://www.w3.org/Graphics/SVG/1.1/DTD/svg11.dtd">
<svg xmlns="http://www.w3.org/2000/svg" version="1.1" viewBox="0 0 323 94">
<g stroke-width="2.00" fill="none" stroke-linecap="butt">
<path stroke="#070702" vector-effect="non-scaling-stroke" d="
  M 284.00 5.54
  L 288.16 8.52
  A 1.02 1.02 0.0 0 0 288.67 8.70
  L 293.24 9.04
  A 1.01 1.01 0.0 0 1 294.11 10.39
  Q 293.65 11.59 291.73 11.26
  Q 290.21 11.00 288.64 10.89
  Q 286.25 10.72 288.45 11.68
  L 289.02 11.92"
/>
<path stroke="#4b0678" vector-effect="non-scaling-stroke" d="
  M 289.02 11.92
  Q 266.38 11.16 243.75 11.54"
/>
<path stroke="#3f077d" vector-effect="non-scaling-stroke" d="
  M 243.75 11.54
  L 54.00 11.71"
/>
<path stroke="#070702" vector-effect="non-scaling-stroke" d="
  M 54.00 11.71
  Q 52.26 11.54 51.98 10.09
  A 0.79 0.79 0.0 0 0 51.09 9.45
  L 50.80 9.49
  A 0.79 0.78 -22.3 0 1 50.05 9.18
  L 47.48 5.75"
/>
<path stroke="#c37ef5" vector-effect="non-scaling-stroke" d="
  M 258.25 29.71
  Q 252.96 28.43 247.78 29.82"
/>
<path stroke="#39027d" vector-effect="non-scaling-stroke" d="
  M 54.00 11.71
  C 67.51 18.58 76.36 34.20 70.28 49.09
  C 68.74 52.84 65.54 58.20 62.47 60.76
  Q 59.00 63.66 55.19 66.12
  Q 52.90 67.60 55.63 67.60
  Q 113.11 67.42 170.81 67.64
  Q 185.15 67.70 258.25 67.46"
/>
<path stroke="#450177" vector-effect="non-scaling-stroke" d="
  M 258.25 67.46
  Q 281.10 68.39 292.00 67.48
  C 307.00 66.23 315.01 48.72 314.16 35.69
  C 313.37 23.53 299.35 15.75 289.02 11.92"
/>
<path stroke="#7d01f3" vector-effect="non-scaling-stroke" d="
  M 243.75 11.54
  Q 258.95 11.89 246.31 12.59
  A 1.00 1.00 0.0 0 0 245.49 14.07
  Q 245.94 14.89 246.70 15.36
  Q 248.07 16.20 246.49 16.53
  L 243.41 17.17
  A 1.00 1.00 0.0 0 0 242.64 18.39
  Q 243.30 21.13 245.65 22.64
  A 0.98 0.98 0.0 0 1 246.10 23.55
  Q 245.89 26.40 248.28 26.78
  Q 249.10 26.90 248.41 27.37
  Q 248.09 27.59 247.89 27.93
  A 1.01 1.00 -73.9 0 1 247.01 28.42
  Q 245.07 28.38 243.69 29.66
  A 1.02 1.00 28.0 0 1 242.84 29.91
  C 241.83 29.73 238.83 31.64 242.11 31.24
  A 1.06 1.02 -68.4 0 0 242.66 30.99
  Q 244.99 28.89 247.78 29.82"
/>
<path stroke="#b77ffb" vector-effect="non-scaling-stroke" d="
  M 247.78 29.82
  C 224.70 39.68 245.26 70.73 265.47 55.00
  C 271.67 50.17 263.82 47.27 260.17 47.53
  A 1.06 1.03 21.8 0 0 259.59 47.77
  C 257.97 49.15 256.41 51.21 254.24 51.33
  Q 250.50 51.54 249.59 47.54
  A 1.00 1.00 0.0 0 1 250.53 46.32
  L 264.26 45.81
  Q 267.43 45.69 267.52 42.44
  Q 267.78 32.39 258.25 29.71"
/>
<path stroke="#7d01f3" vector-effect="non-scaling-stroke" d="
  M 258.25 29.71
  C 260.63 28.29 263.61 29.61 265.68 31.08
  Q 267.30 32.22 268.33 34.94
  Q 269.17 37.15 268.82 42.08
  A 1.02 1.01 -16.9 0 1 268.42 42.82
  Q 267.58 43.44 268.59 44.13
  A 1.00 0.99 18.2 0 1 269.03 44.99
  L 268.75 53.98
  A 0.97 0.96 71.9 0 1 268.38 54.72
  L 259.39 62.05
  A 0.99 0.99 0.0 0 0 259.20 63.38
  Q 260.70 65.59 258.25 67.46"
/>
<path stroke="#80267f" vector-effect="non-scaling-stroke" d="
  M 22.50 19.21
  C 8.75 31.02 10.07 47.08 21.44 59.85
  A 0.99 0.99 0.0 0 1 21.66 60.77
  L 17.04 78.25"
/>
<path stroke="#581f6f" vector-effect="non-scaling-stroke" d="
  M 17.04 78.25
  L 16.81 79.64
  Q 16.53 81.27 17.98 80.48
  L 23.50 77.46"
/>
<path stroke="#40165b" vector-effect="non-scaling-stroke" d="
  M 23.50 77.46
  L 45.50 65.54"
/>
<path stroke="#581f6f" vector-effect="non-scaling-stroke" d="
  M 45.50 65.54
  C 54.42 60.57 65.11 53.36 66.04 42.00"
/>
<path stroke="#290b5e" vector-effect="non-scaling-stroke" d="
  M 66.04 42.00
  C 67.86 27.28 59.72 22.41 49.08 15.75"
/>
<path stroke="#6a2c6c" vector-effect="non-scaling-stroke" d="
  M 49.08 15.75
  Q 34.34 7.81 22.50 19.21"
/>
<path stroke="#9235c8" vector-effect="non-scaling-stroke" d="
  M 49.08 15.75
  Q 41.91 19.87 37.22 26.86"
/>
<path stroke="#b82dea" vector-effect="non-scaling-stroke" d="
  M 37.22 26.86
  L 35.29 30.00"
/>
<path stroke="#e851ea" vector-effect="non-scaling-stroke" d="
  M 35.29 30.00
  Q 31.14 27.66 28.35 23.90
  C 27.10 22.23 25.28 21.20 24.10 19.45
  A 0.99 0.99 0.0 0 0 22.96 19.06
  L 22.50 19.21"
/>
<path stroke="#ce28fe" vector-effect="non-scaling-stroke" d="
  M 35.29 30.00
  Q 30.93 40.28 30.25 51.46"
/>
<path stroke="#e851ea" vector-effect="non-scaling-stroke" d="
  M 30.25 51.46
  Q 28.19 54.53 30.04 57.75"
/>
<path stroke="#be3bd9" vector-effect="non-scaling-stroke" d="
  M 30.04 57.75
  L 23.21 75.50"
/>
<path stroke="#d644ed" vector-effect="non-scaling-stroke" d="
  M 23.21 75.50
  L 17.04 78.25"
/>
<path stroke="#a621ee" vector-effect="non-scaling-stroke" d="
  M 48.78 43.68
  L 45.96 54.00"
/>
<path stroke="#8e17d9" vector-effect="non-scaling-stroke" d="
  M 45.96 54.00
  Q 40.35 51.00 34.29 53.00"
/>
<path stroke="#b82dea" vector-effect="non-scaling-stroke" d="
  M 34.29 53.00
  Q 31.80 53.15 30.25 51.46"
/>
<path stroke="#8029cc" vector-effect="non-scaling-stroke" d="
  M 66.04 42.00
  Q 57.40 42.25 48.78 43.68"
/>
<path stroke="#780cdc" vector-effect="non-scaling-stroke" d="
  M 48.78 43.68
  C 49.22 38.15 50.85 26.70 42.09 26.10
  Q 39.65 25.94 37.22 26.86"
/>
<path stroke="#a840c5" vector-effect="non-scaling-stroke" d="
  M 34.29 53.00
  Q 31.16 54.42 30.04 57.75"
/>
<path stroke="#9634c9" vector-effect="non-scaling-stroke" d="
  M 23.50 77.46
  L 23.21 75.50"
/>
<path stroke="#9634c9" vector-effect="non-scaling-stroke" d="
  M 45.50 65.54
  Q 46.25 59.78 45.96 54.00"
/>
<path stroke="#070702" vector-effect="non-scaling-stroke" d="
  M 304.24 13.66
  A 1.00 1.00 0.0 0 0 304.04 15.29
  Q 305.73 16.83 306.85 15.59
  A 1.00 0.99 -44.3 0 0 306.87 14.28
  Q 305.71 12.90 304.24 13.66"
/>
<path stroke="#070702" vector-effect="non-scaling-stroke" d="
  M 305.78 17.52
  Q 305.62 18.25 306.16 18.47
  A 0.41 0.41 0.0 0 0 306.70 18.22
  Q 306.90 17.62 306.42 17.28
  A 0.41 0.41 0.0 0 0 305.78 17.52"
/>
<path stroke="#b77ffb" vector-effect="non-scaling-stroke" d="
  M 195.35 21.29
  A 5.16 5.16 0.0 0 0 190.19 16.13
  A 5.16 5.16 0.0 0 0 185.03 21.29
  A 5.16 5.16 0.0 0 0 190.19 26.45
  A 5.16 5.16 0.0 0 0 195.35 21.29"
/>
<path stroke="#b77ffb" vector-effect="non-scaling-stroke" d="
  M 212.46 30.44
  L 212.52 20.00
  A 1.00 1.00 0.0 0 0 211.52 19.00
  L 202.35 19.00
  A 1.01 1.00 -90.0 0 0 201.35 20.01
  L 201.56 56.80
  A 0.99 0.99 0.0 0 0 202.52 57.79
  L 210.93 58.09
  A 0.80 0.80 0.0 0 0 211.76 57.26
  L 211.75 56.85
  Q 211.72 55.89 212.53 56.40
  C 218.78 60.28 227.35 60.13 232.13 54.17
  C 237.55 47.42 236.88 33.55 227.69 30.10
  Q 220.68 27.46 213.96 31.32
  Q 212.45 32.18 212.46 30.44"
/>
<path stroke="#b77ffb" vector-effect="non-scaling-stroke" d="
  M 144.46 25.25
  A 0.27 0.27 0.0 0 0 144.19 24.98
  L 125.03 24.98
  A 0.27 0.27 0.0 0 0 124.76 25.25
  L 124.76 27.75
  A 0.27 0.27 0.0 0 0 125.03 28.02
  L 144.19 28.02
  A 0.27 0.27 0.0 0 0 144.46 27.75
  L 144.46 25.25"
/>
<path stroke="#b77ffb" vector-effect="non-scaling-stroke" d="
  M 165.48 42.94
  L 162.12 31.23
  A 1.01 1.00 81.9 0 0 161.16 30.50
  L 150.95 30.50
  A 1.00 0.99 77.9 0 0 150.04 31.91
  L 161.55 57.26
  A 1.02 1.01 -11.3 0 0 162.44 57.85
  L 170.07 58.01
  A 1.01 1.01 0.0 0 0 171.01 57.41
  L 182.33 31.90
  A 1.01 1.00 12.0 0 0 181.41 30.49
  L 171.13 30.52
  A 0.99 0.99 0.0 0 0 170.15 31.36
  Q 169.19 37.38 166.99 43.02
  Q 166.13 45.22 165.48 42.94"
/>
<path stroke="#b77ffb" vector-effect="non-scaling-stroke" d="
  M 195.8180 31.2174
  A 0.70 0.70 0.0 0 0 195.1217 30.5137
  L 186.1218 30.4666
  A 0.70 0.70 0.0 0 0 185.4181 31.1630
  L 185.2820 57.1626
  A 0.70 0.70 0.0 0 0 185.9783 57.8663
  L 194.9782 57.9134
  A 0.70 0.70 0.0 0 0 195.6819 57.2170
  L 195.8180 31.2174"
/>
<path stroke="#b77ffb" vector-effect="non-scaling-stroke" d="
  M 144.4998 35.4870
  A 0.40 0.40 0.0 0 0 144.1033 35.0836
  L 124.9641 34.9165
  A 0.40 0.40 0.0 0 0 124.5606 35.3130
  L 124.5402 37.6530
  A 0.40 0.40 0.0 0 0 124.9367 38.0564
  L 144.0759 38.2235
  A 0.40 0.40 0.0 0 0 144.4794 37.8270
  L 144.4998 35.4870"
/>
<path stroke="#8803fb" vector-effect="non-scaling-stroke" d="
  M 124.66 46.94
  Q 133.74 48.02 142.75 46.54"
/>
<path stroke="#b77ffb" vector-effect="non-scaling-stroke" d="
  M 142.75 46.54
  Q 145.07 47.03 144.69 45.06
  A 1.00 1.00 0.0 0 0 143.71 44.25
  L 125.75 44.25
  A 0.99 0.99 0.0 0 0 124.76 45.20
  L 124.66 46.94"
/>
<path stroke="#ce80fe" vector-effect="non-scaling-stroke" d="
  M 142.75 46.54
  Q 133.86 46.14 124.66 46.94"
/>
<path stroke="#8803fb" vector-effect="non-scaling-stroke" d="
  M 124.54 56.00
  Q 124.45 56.61 124.61 57.12
  A 1.01 0.99 -8.9 0 0 125.58 57.81
  L 143.55 57.64
  A 1.00 0.97 -64.5 0 0 144.19 57.40
  Q 145.51 56.26 144.56 56.08"
/>
<path stroke="#b77ffb" vector-effect="non-scaling-stroke" d="
  M 144.56 56.08
  Q 144.76 54.68 144.52 53.75
  A 1.00 0.99 -7.0 0 0 143.55 53.00
  L 125.68 53.00
  A 0.99 0.99 0.0 0 0 124.76 53.62
  Q 124.29 54.76 124.54 56.00"
/>
<path stroke="#ce80fe" vector-effect="non-scaling-stroke" d="
  M 144.56 56.08
  L 124.54 56.00"
/>
<path stroke="#fea4fd" vector-effect="non-scaling-stroke" d="
  M 212.34 36.63
  Q 211.66 34.66 210.85 36.58
  Q 210.67 36.99 210.72 37.41
  Q 210.88 38.88 212.02 37.94
  Q 212.62 37.44 212.34 36.63"
/>
<path stroke="#b77ffb" vector-effect="non-scaling-stroke" d="
  M 225.3844 43.6319
  A 6.93 6.51 -2.3 0 0 218.1987 37.4052
  A 6.93 6.51 -2.3 0 0 211.5356 44.1881
  A 6.93 6.51 -2.3 0 0 218.7213 50.4148
  A 6.93 6.51 -2.3 0 0 225.3844 43.6319"
/>
<path stroke="#ce80fe" vector-effect="non-scaling-stroke" d="
  M 253.55 37.66
  Q 250.10 37.37 249.39 41.06
  A 1.01 1.00 -84.7 0 0 250.37 42.25
  L 255.79 42.25
  A 1.01 1.00 -86.0 0 0 256.78 41.38
  C 257.08 39.11 255.79 37.84 253.55 37.66"
/>
</g>
<path fill="#0d0c02" d="
  M 284.00 5.54
  L 288.16 8.52
  A 1.02 1.02 0.0 0 0 288.67 8.70
  L 293.24 9.04
  A 1.01 1.01 0.0 0 1 294.11 10.39
  Q 293.65 11.59 291.73 11.26
  Q 290.21 11.00 288.64 10.89
  Q 286.25 10.72 288.45 11.68
  L 289.02 11.92
  Q 266.38 11.16 243.75 11.54
  L 54.00 11.71
  Q 52.26 11.54 51.98 10.09
  A 0.79 0.79 0.0 0 0 51.09 9.45
  L 50.80 9.49
  A 0.79 0.78 -22.3 0 1 50.05 9.18
  L 47.48 5.75
  C 126.28 4.79 205.18 5.51 284.00 5.54
  Z"
/>
<path fill="#010101" d="
  M 47.48 5.75
  L 50.05 9.18
  A 0.79 0.78 -22.3 0 0 50.80 9.49
  L 51.09 9.45
  A 0.79 0.79 0.0 0 1 51.98 10.09
  Q 52.26 11.54 54.00 11.71
  C 67.51 18.58 76.36 34.20 70.28 49.09
  C 68.74 52.84 65.54 58.20 62.47 60.76
  Q 59.00 63.66 55.19 66.12
  Q 52.90 67.60 55.63 67.60
  Q 113.11 67.42 170.81 67.64
  Q 185.15 67.70 258.25 67.46
  Q 281.10 68.39 292.00 67.48
  C 307.00 66.23 315.01 48.72 314.16 35.69
  C 313.37 23.53 299.35 15.75 289.02 11.92
  L 288.45 11.68
  Q 286.25 10.72 288.64 10.89
  Q 290.21 11.00 291.73 11.26
  Q 293.65 11.59 294.11 10.39
  A 1.01 1.01 0.0 0 0 293.24 9.04
  L 288.67 8.70
  A 1.02 1.02 0.0 0 1 288.16 8.52
  L 284.00 5.54
  C 287.90 6.85 291.24 5.80 294.78 6.80
  C 326.99 15.95 328.44 62.37 296.04 72.30
  Q 292.13 73.50 286.30 73.49
  Q 166.93 73.28 47.55 73.58
  A 1.02 0.98 60.3 0 1 47.01 73.42
  C 44.15 71.60 42.70 73.12 40.20 74.53
  Q 26.40 82.31 12.53 89.94
  A 1.00 0.99 32.9 0 1 11.95 90.06
  Q 8.34 89.71 8.73 86.50
  Q 9.36 81.40 15.10 63.05
  A 1.02 1.02 0.0 0 0 15.05 62.31
  C 14.06 60.29 12.19 59.12 11.21 57.38
  C 1.73 40.65 5.48 21.00 22.55 10.57
  C 29.94 6.05 38.99 5.09 47.48 5.75
  Z
  M 22.50 19.21
  C 8.75 31.02 10.07 47.08 21.44 59.85
  A 0.99 0.99 0.0 0 1 21.66 60.77
  L 17.04 78.25
  L 16.81 79.64
  Q 16.53 81.27 17.98 80.48
  L 23.50 77.46
  L 45.50 65.54
  C 54.42 60.57 65.11 53.36 66.04 42.00
  C 67.86 27.28 59.72 22.41 49.08 15.75
  Q 34.34 7.81 22.50 19.21
  Z
  M 304.24 13.66
  A 1.00 1.00 0.0 0 0 304.04 15.29
  Q 305.73 16.83 306.85 15.59
  A 1.00 0.99 -44.3 0 0 306.87 14.28
  Q 305.71 12.90 304.24 13.66
  Z
  M 305.78 17.52
  Q 305.62 18.25 306.16 18.47
  A 0.41 0.41 0.0 0 0 306.70 18.22
  Q 306.90 17.62 306.42 17.28
  A 0.41 0.41 0.0 0 0 305.78 17.52
  Z"
/>
<path fill="#7102f8" d="
  M 243.75 11.54
  Q 258.95 11.89 246.31 12.59
  A 1.00 1.00 0.0 0 0 245.49 14.07
  Q 245.94 14.89 246.70 15.36
  Q 248.07 16.20 246.49 16.53
  L 243.41 17.17
  A 1.00 1.00 0.0 0 0 242.64 18.39
  Q 243.30 21.13 245.65 22.64
  A 0.98 0.98 0.0 0 1 246.10 23.55
  Q 245.89 26.40 248.28 26.78
  Q 249.10 26.90 248.41 27.37
  Q 248.09 27.59 247.89 27.93
  A 1.01 1.00 -73.9 0 1 247.01 28.42
  Q 245.07 28.38 243.69 29.66
  A 1.02 1.00 28.0 0 1 242.84 29.91
  C 241.83 29.73 238.83 31.64 242.11 31.24
  A 1.06 1.02 -68.4 0 0 242.66 30.99
  Q 244.99 28.89 247.78 29.82
  C 224.70 39.68 245.26 70.73 265.47 55.00
  C 271.67 50.17 263.82 47.27 260.17 47.53
  A 1.06 1.03 21.8 0 0 259.59 47.77
  C 257.97 49.15 256.41 51.21 254.24 51.33
  Q 250.50 51.54 249.59 47.54
  A 1.00 1.00 0.0 0 1 250.53 46.32
  L 264.26 45.81
  Q 267.43 45.69 267.52 42.44
  Q 267.78 32.39 258.25 29.71
  C 260.63 28.29 263.61 29.61 265.68 31.08
  Q 267.30 32.22 268.33 34.94
  Q 269.17 37.15 268.82 42.08
  A 1.02 1.01 -16.9 0 1 268.42 42.82
  Q 267.58 43.44 268.59 44.13
  A 1.00 0.99 18.2 0 1 269.03 44.99
  L 268.75 53.98
  A 0.97 0.96 71.9 0 1 268.38 54.72
  L 259.39 62.05
  A 0.99 0.99 0.0 0 0 259.20 63.38
  Q 260.70 65.59 258.25 67.46
  Q 185.15 67.70 170.81 67.64
  Q 113.11 67.42 55.63 67.60
  Q 52.90 67.60 55.19 66.12
  Q 59.00 63.66 62.47 60.76
  C 65.54 58.20 68.74 52.84 70.28 49.09
  C 76.36 34.20 67.51 18.58 54.00 11.71
  L 243.75 11.54
  Z
  M 195.35 21.29
  A 5.16 5.16 0.0 0 0 190.19 16.13
  A 5.16 5.16 0.0 0 0 185.03 21.29
  A 5.16 5.16 0.0 0 0 190.19 26.45
  A 5.16 5.16 0.0 0 0 195.35 21.29
  Z
  M 212.46 30.44
  L 212.52 20.00
  A 1.00 1.00 0.0 0 0 211.52 19.00
  L 202.35 19.00
  A 1.01 1.00 -90.0 0 0 201.35 20.01
  L 201.56 56.80
  A 0.99 0.99 0.0 0 0 202.52 57.79
  L 210.93 58.09
  A 0.80 0.80 0.0 0 0 211.76 57.26
  L 211.75 56.85
  Q 211.72 55.89 212.53 56.40
  C 218.78 60.28 227.35 60.13 232.13 54.17
  C 237.55 47.42 236.88 33.55 227.69 30.10
  Q 220.68 27.46 213.96 31.32
  Q 212.45 32.18 212.46 30.44
  Z
  M 144.46 25.25
  A 0.27 0.27 0.0 0 0 144.19 24.98
  L 125.03 24.98
  A 0.27 0.27 0.0 0 0 124.76 25.25
  L 124.76 27.75
  A 0.27 0.27 0.0 0 0 125.03 28.02
  L 144.19 28.02
  A 0.27 0.27 0.0 0 0 144.46 27.75
  L 144.46 25.25
  Z
  M 165.48 42.94
  L 162.12 31.23
  A 1.01 1.00 81.9 0 0 161.16 30.50
  L 150.95 30.50
  A 1.00 0.99 77.9 0 0 150.04 31.91
  L 161.55 57.26
  A 1.02 1.01 -11.3 0 0 162.44 57.85
  L 170.07 58.01
  A 1.01 1.01 0.0 0 0 171.01 57.41
  L 182.33 31.90
  A 1.01 1.00 12.0 0 0 181.41 30.49
  L 171.13 30.52
  A 0.99 0.99 0.0 0 0 170.15 31.36
  Q 169.19 37.38 166.99 43.02
  Q 166.13 45.22 165.48 42.94
  Z
  M 195.8180 31.2174
  A 0.70 0.70 0.0 0 0 195.1217 30.5137
  L 186.1218 30.4666
  A 0.70 0.70 0.0 0 0 185.4181 31.1630
  L 185.2820 57.1626
  A 0.70 0.70 0.0 0 0 185.9783 57.8663
  L 194.9782 57.9134
  A 0.70 0.70 0.0 0 0 195.6819 57.2170
  L 195.8180 31.2174
  Z
  M 144.4998 35.4870
  A 0.40 0.40 0.0 0 0 144.1033 35.0836
  L 124.9641 34.9165
  A 0.40 0.40 0.0 0 0 124.5606 35.3130
  L 124.5402 37.6530
  A 0.40 0.40 0.0 0 0 124.9367 38.0564
  L 144.0759 38.2235
  A 0.40 0.40 0.0 0 0 144.4794 37.8270
  L 144.4998 35.4870
  Z
  M 124.66 46.94
  Q 133.74 48.02 142.75 46.54
  Q 145.07 47.03 144.69 45.06
  A 1.00 1.00 0.0 0 0 143.71 44.25
  L 125.75 44.25
  A 0.99 0.99 0.0 0 0 124.76 45.20
  L 124.66 46.94
  Z
  M 124.54 56.00
  Q 124.45 56.61 124.61 57.12
  A 1.01 0.99 -8.9 0 0 125.58 57.81
  L 143.55 57.64
  A 1.00 0.97 -64.5 0 0 144.19 57.40
  Q 145.51 56.26 144.56 56.08
  Q 144.76 54.68 144.52 53.75
  A 1.00 0.99 -7.0 0 0 143.55 53.00
  L 125.68 53.00
  A 0.99 0.99 0.0 0 0 124.76 53.62
  Q 124.29 54.76 124.54 56.00
  Z"
/>
<path fill="#8800ed" d="
  M 243.75 11.54
  Q 266.38 11.16 289.02 11.92
  C 299.35 15.75 313.37 23.53 314.16 35.69
  C 315.01 48.72 307.00 66.23 292.00 67.48
  Q 281.10 68.39 258.25 67.46
  Q 260.70 65.59 259.20 63.38
  A 0.99 0.99 0.0 0 1 259.39 62.05
  L 268.38 54.72
  A 0.97 0.96 71.9 0 0 268.75 53.98
  L 269.03 44.99
  A 1.00 0.99 18.2 0 0 268.59 44.13
  Q 267.58 43.44 268.42 42.82
  A 1.02 1.01 -16.9 0 0 268.82 42.08
  Q 269.17 37.15 268.33 34.94
  Q 267.30 32.22 265.68 31.08
  C 263.61 29.61 260.63 28.29 258.25 29.71
  Q 252.96 28.43 247.78 29.82
  Q 244.99 28.89 242.66 30.99
  A 1.06 1.02 -68.4 0 1 242.11 31.24
  C 238.83 31.64 241.83 29.73 242.84 29.91
  A 1.02 1.00 28.0 0 0 243.69 29.66
  Q 245.07 28.38 247.01 28.42
  A 1.01 1.00 -73.9 0 0 247.89 27.93
  Q 248.09 27.59 248.41 27.37
  Q 249.10 26.90 248.28 26.78
  Q 245.89 26.40 246.10 23.55
  A 0.98 0.98 0.0 0 0 245.65 22.64
  Q 243.30 21.13 242.64 18.39
  A 1.00 1.00 0.0 0 1 243.41 17.17
  L 246.49 16.53
  Q 248.07 16.20 246.70 15.36
  Q 245.94 14.89 245.49 14.07
  A 1.00 1.00 0.0 0 1 246.31 12.59
  Q 258.95 11.89 243.75 11.54
  Z"
/>
<path fill="#d256d6" d="
  M 49.08 15.75
  Q 41.91 19.87 37.22 26.86
  L 35.29 30.00
  Q 31.14 27.66 28.35 23.90
  C 27.10 22.23 25.28 21.20 24.10 19.45
  A 0.99 0.99 0.0 0 0 22.96 19.06
  L 22.50 19.21
  Q 34.34 7.81 49.08 15.75
  Z"
/>
<path fill="#0d0c02" d="
  M 304.24 13.66
  Q 305.71 12.90 306.87 14.28
  A 1.00 0.99 -44.3 0 1 306.85 15.59
  Q 305.73 16.83 304.04 15.29
  A 1.00 1.00 0.0 0 1 304.24 13.66
  Z"
/>
<path fill="#5114ba" d="
  M 49.08 15.75
  C 59.72 22.41 67.86 27.28 66.04 42.00
  Q 57.40 42.25 48.78 43.68
  C 49.22 38.15 50.85 26.70 42.09 26.10
  Q 39.65 25.94 37.22 26.86
  Q 41.91 19.87 49.08 15.75
  Z"
/>
<circle fill="#fdfcfd" cx="190.19" cy="21.29" r="5.16"/>
<path fill="#0d0c02" d="
  M 306.42 17.28
  Q 306.90 17.62 306.70 18.22
  A 0.41 0.41 0.0 0 1 306.16 18.47
  Q 305.62 18.25 305.78 17.52
  A 0.41 0.41 0.0 0 1 306.42 17.28
  Z"
/>
<path fill="#fe4bfd" d="
  M 35.29 30.00
  Q 30.93 40.28 30.25 51.46
  Q 28.19 54.53 30.04 57.75
  L 23.21 75.50
  L 17.04 78.25
  L 21.66 60.77
  A 0.99 0.99 0.0 0 0 21.44 59.85
  C 10.07 47.08 8.75 31.02 22.50 19.21
  L 22.96 19.06
  A 0.99 0.99 0.0 0 1 24.10 19.45
  C 25.28 21.20 27.10 22.23 28.35 23.90
  Q 31.14 27.66 35.29 30.00
  Z"
/>
<path fill="#fdfcfd" d="
  M 213.96 31.32
  Q 220.68 27.46 227.69 30.10
  C 236.88 33.55 237.55 47.42 232.13 54.17
  C 227.35 60.13 218.78 60.28 212.53 56.40
  Q 211.72 55.89 211.75 56.85
  L 211.76 57.26
  A 0.80 0.80 0.0 0 1 210.93 58.09
  L 202.52 57.79
  A 0.99 0.99 0.0 0 1 201.56 56.80
  L 201.35 20.01
  A 1.01 1.00 -90.0 0 1 202.35 19.00
  L 211.52 19.00
  A 1.00 1.00 0.0 0 1 212.52 20.00
  L 212.46 30.44
  Q 212.45 32.18 213.96 31.32
  Z
  M 212.34 36.63
  Q 211.66 34.66 210.85 36.58
  Q 210.67 36.99 210.72 37.41
  Q 210.88 38.88 212.02 37.94
  Q 212.62 37.44 212.34 36.63
  Z
  M 225.3844 43.6319
  A 6.93 6.51 -2.3 0 0 218.1987 37.4052
  A 6.93 6.51 -2.3 0 0 211.5356 44.1881
  A 6.93 6.51 -2.3 0 0 218.7213 50.4148
  A 6.93 6.51 -2.3 0 0 225.3844 43.6319
  Z"
/>
<rect fill="#fdfcfd" x="124.76" y="24.98" width="19.70" height="3.04" rx="0.27"/>
<path fill="#9e04fe" d="
  M 48.78 43.68
  L 45.96 54.00
  Q 40.35 51.00 34.29 53.00
  Q 31.80 53.15 30.25 51.46
  Q 30.93 40.28 35.29 30.00
  L 37.22 26.86
  Q 39.65 25.94 42.09 26.10
  C 50.85 26.70 49.22 38.15 48.78 43.68
  Z"
/>
<path fill="#fdfcfd" d="
  M 258.25 29.71
  Q 267.78 32.39 267.52 42.44
  Q 267.43 45.69 264.26 45.81
  L 250.53 46.32
  A 1.00 1.00 0.0 0 0 249.59 47.54
  Q 250.50 51.54 254.24 51.33
  C 256.41 51.21 257.97 49.15 259.59 47.77
  A 1.06 1.03 21.8 0 1 260.17 47.53
  C 263.82 47.27 271.67 50.17 265.47 55.00
  C 245.26 70.73 224.70 39.68 247.78 29.82
  Q 252.96 28.43 258.25 29.71
  Z
  M 253.55 37.66
  Q 250.10 37.37 249.39 41.06
  A 1.01 1.00 -84.7 0 0 250.37 42.25
  L 255.79 42.25
  A 1.01 1.00 -86.0 0 0 256.78 41.38
  C 257.08 39.11 255.79 37.84 253.55 37.66
  Z"
/>
<path fill="#fdfcfd" d="
  M 166.99 43.02
  Q 169.19 37.38 170.15 31.36
  A 0.99 0.99 0.0 0 1 171.13 30.52
  L 181.41 30.49
  A 1.01 1.00 12.0 0 1 182.33 31.90
  L 171.01 57.41
  A 1.01 1.01 0.0 0 1 170.07 58.01
  L 162.44 57.85
  A 1.02 1.01 -11.3 0 1 161.55 57.26
  L 150.04 31.91
  A 1.00 0.99 77.9 0 1 150.95 30.50
  L 161.16 30.50
  A 1.01 1.00 81.9 0 1 162.12 31.23
  L 165.48 42.94
  Q 166.13 45.22 166.99 43.02
  Z"
/>
<rect fill="#fdfcfd" x="-5.20" y="-13.70" transform="translate(190.55,44.19) rotate(0.3)" width="10.40" height="27.40" rx="0.70"/>
<rect fill="#fdfcfd" x="-9.97" y="-1.57" transform="translate(134.52,36.57) rotate(0.5)" width="19.94" height="3.14" rx="0.40"/>
<path fill="#fe4bfd" d="
  M 212.34 36.63
  Q 212.62 37.44 212.02 37.94
  Q 210.88 38.88 210.72 37.41
  Q 210.67 36.99 210.85 36.58
  Q 211.66 34.66 212.34 36.63
  Z"
/>
<ellipse fill="#7102f8" cx="0.00" cy="0.00" transform="translate(218.46,43.91) rotate(-2.3)" rx="6.93" ry="6.51"/>
<path fill="#9e04fe" d="
  M 253.55 37.66
  C 255.79 37.84 257.08 39.11 256.78 41.38
  A 1.01 1.00 -86.0 0 1 255.79 42.25
  L 250.37 42.25
  A 1.01 1.00 -84.7 0 1 249.39 41.06
  Q 250.10 37.37 253.55 37.66
  Z"
/>
<path fill="#ae3ddd" d="
  M 66.04 42.00
  C 65.11 53.36 54.42 60.57 45.50 65.54
  Q 46.25 59.78 45.96 54.00
  L 48.78 43.68
  Q 57.40 42.25 66.04 42.00
  Z"
/>
<path fill="#fdfcfd" d="
  M 142.75 46.54
  Q 133.86 46.14 124.66 46.94
  L 124.76 45.20
  A 0.99 0.99 0.0 0 1 125.75 44.25
  L 143.71 44.25
  A 1.00 1.00 0.0 0 1 144.69 45.06
  Q 145.07 47.03 142.75 46.54
  Z"
/>
<path fill="#9e04fe" d="
  M 124.66 46.94
  Q 133.86 46.14 142.75 46.54
  Q 133.74 48.02 124.66 46.94
  Z"
/>
<path fill="#d256d6" d="
  M 30.25 51.46
  Q 31.80 53.15 34.29 53.00
  Q 31.16 54.42 30.04 57.75
  Q 28.19 54.53 30.25 51.46
  Z"
/>
<path fill="#7e2ab4" d="
  M 45.96 54.00
  Q 46.25 59.78 45.50 65.54
  L 23.50 77.46
  L 23.21 75.50
  L 30.04 57.75
  Q 31.16 54.42 34.29 53.00
  Q 40.35 51.00 45.96 54.00
  Z"
/>
<path fill="#fdfcfd" d="
  M 144.56 56.08
  L 124.54 56.00
  Q 124.29 54.76 124.76 53.62
  A 0.99 0.99 0.0 0 1 125.68 53.00
  L 143.55 53.00
  A 1.00 0.99 -7.0 0 1 144.52 53.75
  Q 144.76 54.68 144.56 56.08
  Z"
/>
<path fill="#9e04fe" d="
  M 144.56 56.08
  Q 145.51 56.26 144.19 57.40
  A 1.00 0.97 -64.5 0 1 143.55 57.64
  L 125.58 57.81
  A 1.01 0.99 -8.9 0 1 124.61 57.12
  Q 124.45 56.61 124.54 56.00
  L 144.56 56.08
  Z"
/>
<path fill="#ae3ddd" d="
  M 23.21 75.50
  L 23.50 77.46
  L 17.98 80.48
  Q 16.53 81.27 16.81 79.64
  L 17.04 78.25
  L 23.21 75.50
  Z"
/>
</svg>
